<svg width="22" height="52" viewBox="0 0 22 52" fill="none" xmlns="http://www.w3.org/2000/svg">
<path d="M0.839376 28.1244H3.74064C6.08635 28.1244 7.50612 29.6078 7.50612 33.0075V41.2903C7.50612 48.0277 11.8272 51.6746 18.5556 51.6746H21.0248V47.0388H19.4816C14.8519 47.0388 12.6914 44.999 12.6914 40.054V33.0075C12.6914 28.6807 10.7778 26.8263 8.49378 25.8373C10.7778 24.8483 12.6914 22.994 12.6914 18.6672V11.6206C12.6914 6.67567 14.8519 4.63588 19.4816 4.63588H21.0248V0H18.5556C11.8272 0 7.50612 3.6469 7.50612 10.3844V18.6672C7.50612 22.0668 6.08635 23.5503 3.74064 23.5503H0.839376V28.1244Z" fill="currentColor"/>
</svg>
