<svg width="40" height="44" viewBox="0 0 40 44" fill="none" xmlns="http://www.w3.org/2000/svg">
<path d="M4.05558 13.8234C1.99876 13.8234 0.340332 15.4725 0.340332 17.5293V39.7652C0.340332 41.8221 1.99876 43.4712 4.05558 43.4712H13.2372L13.3113 13.8234H4.05558ZM26.2822 13.8234L26.3193 43.4712H35.5842C37.6411 43.4712 39.2995 41.8221 39.2995 39.7652V17.5293C39.2995 15.4725 37.6411 13.8234 35.5842 13.8234H26.2822Z" fill="currentColor"/>
<path d="M12.4867 0C12.3014 0 12.0976 0 11.9123 0.0277949C10.8005 0.157504 9.73504 0.648547 8.86413 1.43607C7.62263 2.54786 7.15012 4.13217 7.43733 5.52191C7.71528 6.91166 8.55839 8.06051 9.72577 9.13525C15.118 13.7399 24.1976 14.0364 29.5991 9.13525C30.7572 8.06051 31.6003 6.91166 31.8876 5.52191C32.1655 4.13217 31.7578 2.54786 30.5071 1.43607C29.349 0.389128 27.811 -0.101915 26.3008 0.0277949C24.7906 0.148239 23.336 0.787521 22.1408 1.7974C21.1865 2.60345 20.3064 3.61333 19.6393 4.84557C18.9815 3.63186 18.1384 2.59419 17.1933 1.7974C15.9982 0.787521 14.5436 0.148239 13.0334 0.0277949C12.8481 0.00926496 12.672 0 12.4867 0ZM12.3848 2.99258C12.5238 2.98332 12.6813 2.98332 12.8295 2.99258C13.4318 3.03891 14.1359 3.252 14.9142 3.90055C16.0723 4.87337 16.9246 6.92092 17.4157 9.25569C15.4145 8.73685 13.265 8.16243 12.0791 7.06916C11.2452 6.30017 10.7171 5.54971 10.5967 4.96602C10.4762 4.38233 10.6152 4.04879 11.1711 3.55774C11.5695 3.19641 11.9679 3.02038 12.3941 2.98332L12.3848 2.99258ZM26.5602 2.99258C27.1624 2.94626 27.6071 3.08523 28.1445 3.56701C28.6911 4.05805 28.756 4.38232 28.6356 4.97528C28.5151 5.55897 27.987 6.30944 27.1532 7.07843C25.9672 8.17169 23.929 8.74612 21.9277 9.26496C22.4095 6.92092 23.2433 4.88263 24.4015 3.90981C25.1797 3.26126 25.9672 3.04817 26.5602 3.00185V2.99258Z" fill="currentColor"/>
<path d="M16.0165 15.2131V43.4712H23.4377V15.2131H16.0165Z" fill="currentColor"/>
</svg>
