<svg width="47" height="48" viewBox="0 0 47 48" fill="none" xmlns="http://www.w3.org/2000/svg">
<path d="M21.5126 0.926483C21.0123 0.926483 20.549 1.01913 20.0673 1.11178C18.1124 1.48238 16.2686 2.57565 15.0642 4.33599C15.0457 4.36378 15.0827 4.42864 15.0642 4.45643C15.2865 4.8085 15.4348 5.11424 15.6108 5.51264C16.6948 8.03271 16.4261 10.8678 15.129 13.0821C15.6479 13.8233 16.315 14.4996 17.121 15.0463C20.651 17.4459 25.5429 16.6028 27.9517 13.0821C29.7584 10.4416 29.6472 6.98576 28.0073 4.45643C27.4607 3.61332 26.7473 2.85359 25.8671 2.25137C24.533 1.35267 23.0135 0.935748 21.5126 0.926483ZM22.1519 4.27113C22.3372 4.27113 22.5317 4.29893 22.7263 4.33599C23.5602 4.48423 24.0883 4.81777 24.533 5.3644C24.9777 5.90177 25.2371 6.52252 25.1074 7.26371C25.024 7.75476 24.7183 8.22727 24.3569 8.6164C23.9863 9.01479 23.0135 9.4873 21.4663 10.1544L24.4774 10.701L24.0883 12.6003L18.2328 11.5719L18.5663 9.82084L20.0395 9.07038C20.2526 8.97773 20.651 8.7739 21.2439 8.44036C21.8461 8.09756 22.2167 7.80108 22.4206 7.59725C22.6244 7.39342 22.8004 7.21739 22.8468 6.96724C22.8931 6.72635 22.8468 6.50399 22.7263 6.33722C22.6151 6.16118 22.4391 6.05 22.2167 6.00368C21.6516 5.90177 21.2346 6.28163 21.0123 7.15253L19.1408 6.40207C19.4465 5.5219 19.919 4.966 20.5583 4.6232C21.0401 4.36378 21.6052 4.2804 22.1519 4.28966V4.27113Z" fill="currentColor"/>
<path d="M7.1427 2.91841C4.52072 2.89062 1.99139 4.37301 0.879592 6.93014C-0.593536 10.3396 1.06489 14.3421 4.4744 15.8338C7.89317 17.3254 11.8215 15.7782 13.2946 12.3687C14.7678 8.95917 13.1927 4.9567 9.77395 3.46505C9.34776 3.27975 8.91231 3.11298 8.47686 3.02959C8.05067 2.94621 7.56889 2.92768 7.13344 2.92768L7.1427 2.91841ZM5.56766 5.27171L9.16246 10.0339L10.5615 8.99623L11.5436 10.2933L7.04079 13.7584L6.00311 12.415L7.44845 11.331L5.32677 8.45886C4.95617 9.12594 4.62264 9.65404 4.34469 9.93199L3.30701 8.58857C4.01115 7.76399 4.34469 6.95794 4.2891 6.26306L5.5584 5.28098L5.56766 5.27171Z" fill="currentColor"/>
<path d="M38.0692 17.344C37.7356 18.1871 37.2817 19.1321 36.8833 20.0864C39.0327 22.1432 40.4503 23.7924 41.0896 26.7572H43.4892C45.5738 26.7572 46.8987 28.3785 46.63 30.3798L46.5096 33.289C46.2409 35.2717 45.3978 36.7911 43.3131 36.7911H40.1723C39.1069 38.255 37.7912 39.6447 36.3737 40.8584L36.7628 44.5459C36.9018 45.6484 36.4941 45.8986 35.7993 46.4359C35.1137 46.964 33.8907 47.1123 32.7789 47.2142C31.6671 47.3254 30.4997 47.2976 29.5825 47.0474C28.4336 46.8158 27.9889 46.3062 27.9889 45.3705V44.305C26.4695 44.6107 24.8388 44.759 23.1989 44.759C21.0402 44.759 19.039 44.4903 17.1026 43.9807L16.8895 45.0462C16.8339 45.9356 16.1298 46.5471 15.2403 46.8899C14.3509 47.2327 13.2206 47.2883 12.1458 47.2235C11.0711 47.1586 10.0242 46.9362 9.2459 46.4915C8.85677 46.2692 8.60662 46.019 8.40279 45.6669C8.19896 45.3149 8.06925 44.8238 8.18969 44.3884C8.57882 42.9523 8.45838 41.3495 8.86604 39.9134C5.63257 37.2544 4.1965 33.9097 4.1965 29.9536C4.1965 29.4811 4.1965 28.9437 4.24282 28.4897C3.83516 28.4156 3.44604 28.3415 3.05691 28.1562C2.13041 27.7207 1.41701 26.9703 0.925968 26.0994C0.138446 24.7003 0.166241 23.1068 0.925968 21.6985C1.68569 20.2902 3.06617 19.3545 4.69681 19.1877C6.35523 18.8449 7.06863 22.2822 5.03961 22.6899C4.73387 22.7362 4.33547 23.1253 4.1965 23.3755C4.04826 23.6441 4.04826 24.163 4.1965 24.4131C4.30768 24.6077 4.49298 24.7189 4.70607 24.8115C4.87284 24.8856 5.0674 24.9783 5.26197 24.9783C6.93892 21.2353 10.4874 18.1963 15.0087 16.5101C19.1131 19.7992 25.5337 19.2433 28.3317 15.3983C29.3509 15.6114 30.3885 15.9542 31.5281 16.4638C32.4917 15.5002 33.761 14.9166 34.9376 14.6108C37.1519 14.0364 38.903 15.176 38.0784 17.344H38.0692ZM34.5114 23.7831C33.1124 23.5793 31.8895 25.6546 32.7233 27.6373C33.4089 29.1661 34.6133 29.722 35.6788 29.268C36.735 28.814 37.0593 27.2482 36.383 25.7195C35.8363 24.4595 35.16 23.8758 34.5207 23.7831H34.5114Z" fill="currentColor"/>
</svg>
