<?xml version="1.0" encoding="UTF-8"?>
<svg xmlns="http://www.w3.org/2000/svg" xmlns:xlink="http://www.w3.org/1999/xlink" width="0" height="0">
<defs>
<symbol viewBox="0 0 24 24" fill="none" id="banknotes-outline">
<path d="M2.25 18.75C7.71719 18.75 13.0136 19.4812 18.0468 20.8512C18.7738 21.0491 19.5 20.5086 19.5 19.7551V18.75M3.75 4.5V5.25C3.75 5.66421 3.41421 6 3 6H2.25M2.25 6V5.625C2.25 5.00368 2.75368 4.5 3.375 4.5H20.25M2.25 6V15M20.25 4.5V5.25C20.25 5.66421 20.5858 6 21 6H21.75M20.25 4.5H20.625C21.2463 4.5 21.75 5.00368 21.75 5.625V15.375C21.75 15.9963 21.2463 16.5 20.625 16.5H20.25M21.75 15H21C20.5858 15 20.25 15.3358 20.25 15.75V16.5M20.25 16.5H3.75M3.75 16.5H3.375C2.75368 16.5 2.25 15.9963 2.25 15.375V15M3.75 16.5V15.75C3.75 15.3358 3.41421 15 3 15H2.25M15 10.5C15 12.1569 13.6569 13.5 12 13.5C10.3431 13.5 9 12.1569 9 10.5C9 8.84315 10.3431 7.5 12 7.5C13.6569 7.5 15 8.84315 15 10.5ZM18 10.5H18.0075V10.5075H18V10.5ZM6 10.5H6.0075V10.5075H6V10.5Z" stroke="currentColor" stroke-width="1.5" stroke-linecap="round" stroke-linejoin="round"></path>
</symbol>
<symbol viewBox="0 0 24 24" fill="none" id="calendar-days-outline">
<path d="M6.75 3V5.25M17.25 3V5.25M3 18.75V7.5C3 6.25736 4.00736 5.25 5.25 5.25H18.75C19.9926 5.25 21 6.25736 21 7.5V18.75M3 18.75C3 19.9926 4.00736 21 5.25 21H18.75C19.9926 21 21 19.9926 21 18.75M3 18.75V11.25C3 10.0074 4.00736 9 5.25 9H18.75C19.9926 9 21 10.0074 21 11.25V18.75M12 12.75H12.0075V12.7575H12V12.75ZM12 15H12.0075V15.0075H12V15ZM12 17.25H12.0075V17.2575H12V17.25ZM9.75 15H9.7575V15.0075H9.75V15ZM9.75 17.25H9.7575V17.2575H9.75V17.25ZM7.5 15H7.5075V15.0075H7.5V15ZM7.5 17.25H7.5075V17.2575H7.5V17.25ZM14.25 12.75H14.2575V12.7575H14.25V12.75ZM14.25 15H14.2575V15.0075H14.25V15ZM14.25 17.25H14.2575V17.2575H14.25V17.25ZM16.5 12.75H16.5075V12.7575H16.5V12.75ZM16.5 15H16.5075V15.0075H16.5V15Z" stroke="currentColor" stroke-width="1.5" stroke-linecap="round" stroke-linejoin="round"></path>
</symbol>
<symbol viewBox="0 0 24 24" fill="none" id="chart-bar-square-outline">
<path d="M7.5 14.25V16.5M10.5 12V16.5M13.5 9.75V16.5M16.5 7.5V16.5M6 20.25H18C19.2426 20.25 20.25 19.2426 20.25 18V6C20.25 4.75736 19.2426 3.75 18 3.75H6C4.75736 3.75 3.75 4.75736 3.75 6V18C3.75 19.2426 4.75736 20.25 6 20.25Z" stroke="currentColor" stroke-width="1.5" stroke-linecap="round" stroke-linejoin="round"></path>
</symbol>
<symbol viewBox="0 0 24 24" fill="none" id="chat-bubble-bottom-center-text-outline">
<path d="M7.5 8.25H16.5M7.5 11.25H12M2.25 12.7593C2.25 14.3604 3.37341 15.754 4.95746 15.987C6.08596 16.1529 7.22724 16.2796 8.37985 16.3655C8.73004 16.3916 9.05017 16.5753 9.24496 16.8674L12 21L14.755 16.8675C14.9498 16.5753 15.2699 16.3917 15.6201 16.3656C16.7727 16.2796 17.914 16.153 19.0425 15.9871C20.6266 15.7542 21.75 14.3606 21.75 12.7595V6.74056C21.75 5.13946 20.6266 3.74583 19.0425 3.51293C16.744 3.17501 14.3926 3 12.0003 3C9.60776 3 7.25612 3.17504 4.95747 3.51302C3.37342 3.74593 2.25 5.13956 2.25 6.74064V12.7593Z" stroke="currentColor" stroke-width="1.5" stroke-linecap="round" stroke-linejoin="round"></path>
</symbol>
<symbol viewBox="0 0 24 24" fill="none" stroke="currentColor" stroke-width="2" stroke-linecap="round" stroke-linejoin="round" id="check">
  <polyline points="20 6 9 17 4 12" ></polyline>
</symbol>
<symbol viewBox="0 0 24 24" fill="none" stroke="currentColor" stroke-width="2" stroke-linecap="round" stroke-linejoin="round" id="chevron-down">
  <path d="m6 9 6 6 6-6" ></path>
</symbol>
<symbol viewBox="0 0 24 24" fill="none" stroke="currentColor" stroke-width="2" stroke-linecap="round" stroke-linejoin="round" id="chevron-right">
  <path d="m9 18 6-6-6-6" ></path>
</symbol>
<symbol viewBox="0 0 24 24" fill="none" stroke="currentColor" stroke-width="2" stroke-linecap="round" stroke-linejoin="round" id="circle">
  <circle cx="12" cy="12" r="10" ></circle>
</symbol>
<symbol viewBox="0 0 22 52" fill="none" id="curley-brace">
<path d="M0.839376 28.1244H3.74064C6.08635 28.1244 7.50612 29.6078 7.50612 33.0075V41.2903C7.50612 48.0277 11.8272 51.6746 18.5556 51.6746H21.0248V47.0388H19.4816C14.8519 47.0388 12.6914 44.999 12.6914 40.054V33.0075C12.6914 28.6807 10.7778 26.8263 8.49378 25.8373C10.7778 24.8483 12.6914 22.994 12.6914 18.6672V11.6206C12.6914 6.67567 14.8519 4.63588 19.4816 4.63588H21.0248V0H18.5556C11.8272 0 7.50612 3.6469 7.50612 10.3844V18.6672C7.50612 22.0668 6.08635 23.5503 3.74064 23.5503H0.839376V28.1244Z" fill="currentColor"></path>
</symbol>
<symbol viewBox="0 0 24 24" fill="none" id="document-arrow-down-outline">
<path d="M19.5 14.25V11.625C19.5 9.76104 17.989 8.25 16.125 8.25H14.625C14.0037 8.25 13.5 7.74632 13.5 7.125V5.625C13.5 3.76104 11.989 2.25 10.125 2.25H8.25M9 14.25L12 17.25M12 17.25L15 14.25M12 17.25L12 11.25M10.5 2.25H5.625C5.00368 2.25 4.5 2.75368 4.5 3.375V20.625C4.5 21.2463 5.00368 21.75 5.625 21.75H18.375C18.9963 21.75 19.5 21.2463 19.5 20.625V11.25C19.5 6.27944 15.4706 2.25 10.5 2.25Z" stroke="currentColor" stroke-width="1.5" stroke-linecap="round" stroke-linejoin="round"></path>
</symbol>
<symbol viewBox="0 0 24 24" fill="none" id="document-plus-outline">
<path d="M19.5 14.25V11.625C19.5 9.76104 17.989 8.25 16.125 8.25H14.625C14.0037 8.25 13.5 7.74632 13.5 7.125V5.625C13.5 3.76104 11.989 2.25 10.125 2.25H8.25M12 11.25V17.25M15 14.25H9M10.5 2.25H5.625C5.00368 2.25 4.5 2.75368 4.5 3.375V20.625C4.5 21.2463 5.00368 21.75 5.625 21.75H18.375C18.9963 21.75 19.5 21.2463 19.5 20.625V11.25C19.5 6.27944 15.4706 2.25 10.5 2.25Z" stroke="currentColor" stroke-width="1.5" stroke-linecap="round" stroke-linejoin="round"></path>
</symbol>
<symbol viewBox="0 0 24 24" fill="none" id="gift-outline">
<path d="M21 11.25V19.5C21 20.3284 20.3284 21 19.5 21H5.25C4.42157 21 3.75 20.3284 3.75 19.5V11.25M12 4.875C12 3.42525 10.8247 2.25 9.375 2.25C7.92525 2.25 6.75 3.42525 6.75 4.875C6.75 6.32475 7.92525 7.5 9.375 7.5C10.1095 7.5 12 7.5 12 7.5M12 4.875C12 5.59024 12 7.5 12 7.5M12 4.875C12 3.42525 13.1753 2.25 14.625 2.25C16.0747 2.25 17.25 3.42525 17.25 4.875C17.25 6.32475 16.0747 7.5 14.625 7.5C13.8905 7.5 12 7.5 12 7.5M12 7.5V21M3.375 11.25H21.375C21.9963 11.25 22.5 10.7463 22.5 10.125V8.625C22.5 8.00368 21.9963 7.5 21.375 7.5H3.375C2.75368 7.5 2.25 8.00368 2.25 8.625V10.125C2.25 10.7463 2.75368 11.25 3.375 11.25Z" stroke="currentColor" stroke-width="1.5" stroke-linecap="round" stroke-linejoin="round"></path>
</symbol>
<symbol viewBox="0 0 40 44" fill="none" id="gift">
<path d="M4.05558 13.8234C1.99876 13.8234 0.340332 15.4725 0.340332 17.5293V39.7652C0.340332 41.8221 1.99876 43.4712 4.05558 43.4712H13.2372L13.3113 13.8234H4.05558ZM26.2822 13.8234L26.3193 43.4712H35.5842C37.6411 43.4712 39.2995 41.8221 39.2995 39.7652V17.5293C39.2995 15.4725 37.6411 13.8234 35.5842 13.8234H26.2822Z" fill="currentColor"></path>
<path d="M12.4867 0C12.3014 0 12.0976 0 11.9123 0.0277949C10.8005 0.157504 9.73504 0.648547 8.86413 1.43607C7.62263 2.54786 7.15012 4.13217 7.43733 5.52191C7.71528 6.91166 8.55839 8.06051 9.72577 9.13525C15.118 13.7399 24.1976 14.0364 29.5991 9.13525C30.7572 8.06051 31.6003 6.91166 31.8876 5.52191C32.1655 4.13217 31.7578 2.54786 30.5071 1.43607C29.349 0.389128 27.811 -0.101915 26.3008 0.0277949C24.7906 0.148239 23.336 0.787521 22.1408 1.7974C21.1865 2.60345 20.3064 3.61333 19.6393 4.84557C18.9815 3.63186 18.1384 2.59419 17.1933 1.7974C15.9982 0.787521 14.5436 0.148239 13.0334 0.0277949C12.8481 0.00926496 12.672 0 12.4867 0ZM12.3848 2.99258C12.5238 2.98332 12.6813 2.98332 12.8295 2.99258C13.4318 3.03891 14.1359 3.252 14.9142 3.90055C16.0723 4.87337 16.9246 6.92092 17.4157 9.25569C15.4145 8.73685 13.265 8.16243 12.0791 7.06916C11.2452 6.30017 10.7171 5.54971 10.5967 4.96602C10.4762 4.38233 10.6152 4.04879 11.1711 3.55774C11.5695 3.19641 11.9679 3.02038 12.3941 2.98332L12.3848 2.99258ZM26.5602 2.99258C27.1624 2.94626 27.6071 3.08523 28.1445 3.56701C28.6911 4.05805 28.756 4.38232 28.6356 4.97528C28.5151 5.55897 27.987 6.30944 27.1532 7.07843C25.9672 8.17169 23.929 8.74612 21.9277 9.26496C22.4095 6.92092 23.2433 4.88263 24.4015 3.90981C25.1797 3.26126 25.9672 3.04817 26.5602 3.00185V2.99258Z" fill="currentColor"></path>
<path d="M16.0165 15.2131V43.4712H23.4377V15.2131H16.0165Z" fill="currentColor"></path>
</symbol>
<symbol role="img" viewBox="0 0 24 24" id="github"><title>GitHub</title><path d="M12 .297c-6.63 0-12 5.373-12 12 0 5.303 3.438 9.8 8.205 11.385.6.113.82-.258.82-.577 0-.285-.01-1.04-.015-2.04-3.338.724-4.042-1.61-4.042-1.61C4.422 18.07 3.633 17.7 3.633 17.7c-1.087-.744.084-.729.084-.729 1.205.084 1.838 1.236 1.838 1.236 1.07 1.835 2.809 1.305 3.495.998.108-.776.417-1.305.76-1.605-2.665-.3-5.466-1.332-5.466-5.93 0-1.31.465-2.38 1.235-3.22-.135-.303-.54-1.523.105-3.176 0 0 1.005-.322 3.3 1.23.96-.267 1.98-.399 3-.405 1.02.006 2.04.138 3 .405 2.28-1.552 3.285-1.23 3.285-1.23.645 1.653.24 2.873.12 3.176.765.84 1.23 1.91 1.23 3.22 0 4.61-2.805 5.625-5.475 5.92.42.36.81 1.096.81 2.22 0 1.606-.015 2.896-.015 3.286 0 .315.21.69.825.57C20.565 22.092 24 17.592 24 12.297c0-6.627-5.373-12-12-12"></path></symbol>
<symbol fill="currentColor" role="img" viewBox="0 0 24 24" id="google"><title>Google</title><path d="M12.48 10.92v3.28h7.84c-.24 1.84-.853 3.187-1.787 4.133-1.147 1.147-2.933 2.4-6.053 2.4-4.827 0-8.6-3.893-8.6-8.72s3.773-8.72 8.6-8.72c2.6 0 4.507 1.027 5.907 2.347l2.307-2.307C18.747 1.44 16.133 0 12.48 0 5.867 0 .307 5.387.307 12s5.56 12 12.173 12c3.573 0 6.267-1.173 8.373-3.36 2.16-2.16 2.84-5.213 2.84-7.667 0-.76-.053-1.467-.173-2.053H12.48z"></path></symbol>
<symbol viewBox="0 0 24 24" fill="none" id="identification-outline">
<path d="M15 9H18.75M15 12H18.75M15 15H18.75M4.5 19.5H19.5C20.7426 19.5 21.75 18.4926 21.75 17.25V6.75C21.75 5.50736 20.7426 4.5 19.5 4.5H4.5C3.25736 4.5 2.25 5.50736 2.25 6.75V17.25C2.25 18.4926 3.25736 19.5 4.5 19.5ZM10.5 9.375C10.5 10.4105 9.66053 11.25 8.625 11.25C7.58947 11.25 6.75 10.4105 6.75 9.375C6.75 8.33947 7.58947 7.5 8.625 7.5C9.66053 7.5 10.5 8.33947 10.5 9.375ZM11.7939 15.7114C10.8489 16.2147 9.77021 16.5 8.62484 16.5C7.47948 16.5 6.40074 16.2147 5.45581 15.7114C5.92986 14.4207 7.16983 13.5 8.62484 13.5C10.0799 13.5 11.3198 14.4207 11.7939 15.7114Z" stroke="currentColor" stroke-width="1.5" stroke-linecap="round" stroke-linejoin="round"></path>
</symbol>
<symbol viewBox="0 0 24 24" fill="none" stroke="currentColor" stroke-width="2" stroke-linecap="round" stroke-linejoin="round" id="log-out">
  <path d="M9 21H5a2 2 0 0 1-2-2V5a2 2 0 0 1 2-2h4" ></path>
  <polyline points="16 17 21 12 16 7" ></polyline>
  <line x1="21" x2="9" y1="12" y2="12" ></line>
</symbol>
<symbol viewBox="0 0 24 24" fill="none" id="pencil-outline">
<path d="M16.8617 4.48667L18.5492 2.79917C19.2814 2.06694 20.4686 2.06694 21.2008 2.79917C21.9331 3.53141 21.9331 4.71859 21.2008 5.45083L6.83218 19.8195C6.30351 20.3481 5.65144 20.7368 4.93489 20.9502L2.25 21.75L3.04978 19.0651C3.26323 18.3486 3.65185 17.6965 4.18052 17.1678L16.8617 4.48667ZM16.8617 4.48667L19.5 7.12499" stroke="currentColor" stroke-width="1.5" stroke-linecap="round" stroke-linejoin="round"></path>
</symbol>
<symbol viewBox="0 0 24 24" fill="none" id="photo-outline">
<path d="M2.25 15.75L7.40901 10.591C8.28769 9.71231 9.71231 9.71231 10.591 10.591L15.75 15.75M14.25 14.25L15.659 12.841C16.5377 11.9623 17.9623 11.9623 18.841 12.841L21.75 15.75M3.75 19.5H20.25C21.0784 19.5 21.75 18.8284 21.75 18V6C21.75 5.17157 21.0784 4.5 20.25 4.5H3.75C2.92157 4.5 2.25 5.17157 2.25 6V18C2.25 18.8284 2.92157 19.5 3.75 19.5ZM14.25 8.25H14.2575V8.2575H14.25V8.25ZM14.625 8.25C14.625 8.45711 14.4571 8.625 14.25 8.625C14.0429 8.625 13.875 8.45711 13.875 8.25C13.875 8.04289 14.0429 7.875 14.25 7.875C14.4571 7.875 14.625 8.04289 14.625 8.25Z" stroke="currentColor" stroke-width="1.5" stroke-linecap="round" stroke-linejoin="round"></path>
</symbol>
<symbol viewBox="0 0 47 48" fill="none" id="piggy-bank">
<path d="M21.5126 0.926483C21.0123 0.926483 20.549 1.01913 20.0673 1.11178C18.1124 1.48238 16.2686 2.57565 15.0642 4.33599C15.0457 4.36378 15.0827 4.42864 15.0642 4.45643C15.2865 4.8085 15.4348 5.11424 15.6108 5.51264C16.6948 8.03271 16.4261 10.8678 15.129 13.0821C15.6479 13.8233 16.315 14.4996 17.121 15.0463C20.651 17.4459 25.5429 16.6028 27.9517 13.0821C29.7584 10.4416 29.6472 6.98576 28.0073 4.45643C27.4607 3.61332 26.7473 2.85359 25.8671 2.25137C24.533 1.35267 23.0135 0.935748 21.5126 0.926483ZM22.1519 4.27113C22.3372 4.27113 22.5317 4.29893 22.7263 4.33599C23.5602 4.48423 24.0883 4.81777 24.533 5.3644C24.9777 5.90177 25.2371 6.52252 25.1074 7.26371C25.024 7.75476 24.7183 8.22727 24.3569 8.6164C23.9863 9.01479 23.0135 9.4873 21.4663 10.1544L24.4774 10.701L24.0883 12.6003L18.2328 11.5719L18.5663 9.82084L20.0395 9.07038C20.2526 8.97773 20.651 8.7739 21.2439 8.44036C21.8461 8.09756 22.2167 7.80108 22.4206 7.59725C22.6244 7.39342 22.8004 7.21739 22.8468 6.96724C22.8931 6.72635 22.8468 6.50399 22.7263 6.33722C22.6151 6.16118 22.4391 6.05 22.2167 6.00368C21.6516 5.90177 21.2346 6.28163 21.0123 7.15253L19.1408 6.40207C19.4465 5.5219 19.919 4.966 20.5583 4.6232C21.0401 4.36378 21.6052 4.2804 22.1519 4.28966V4.27113Z" fill="currentColor"></path>
<path d="M7.1427 2.91841C4.52072 2.89062 1.99139 4.37301 0.879592 6.93014C-0.593536 10.3396 1.06489 14.3421 4.4744 15.8338C7.89317 17.3254 11.8215 15.7782 13.2946 12.3687C14.7678 8.95917 13.1927 4.9567 9.77395 3.46505C9.34776 3.27975 8.91231 3.11298 8.47686 3.02959C8.05067 2.94621 7.56889 2.92768 7.13344 2.92768L7.1427 2.91841ZM5.56766 5.27171L9.16246 10.0339L10.5615 8.99623L11.5436 10.2933L7.04079 13.7584L6.00311 12.415L7.44845 11.331L5.32677 8.45886C4.95617 9.12594 4.62264 9.65404 4.34469 9.93199L3.30701 8.58857C4.01115 7.76399 4.34469 6.95794 4.2891 6.26306L5.5584 5.28098L5.56766 5.27171Z" fill="currentColor"></path>
<path d="M38.0692 17.344C37.7356 18.1871 37.2817 19.1321 36.8833 20.0864C39.0327 22.1432 40.4503 23.7924 41.0896 26.7572H43.4892C45.5738 26.7572 46.8987 28.3785 46.63 30.3798L46.5096 33.289C46.2409 35.2717 45.3978 36.7911 43.3131 36.7911H40.1723C39.1069 38.255 37.7912 39.6447 36.3737 40.8584L36.7628 44.5459C36.9018 45.6484 36.4941 45.8986 35.7993 46.4359C35.1137 46.964 33.8907 47.1123 32.7789 47.2142C31.6671 47.3254 30.4997 47.2976 29.5825 47.0474C28.4336 46.8158 27.9889 46.3062 27.9889 45.3705V44.305C26.4695 44.6107 24.8388 44.759 23.1989 44.759C21.0402 44.759 19.039 44.4903 17.1026 43.9807L16.8895 45.0462C16.8339 45.9356 16.1298 46.5471 15.2403 46.8899C14.3509 47.2327 13.2206 47.2883 12.1458 47.2235C11.0711 47.1586 10.0242 46.9362 9.2459 46.4915C8.85677 46.2692 8.60662 46.019 8.40279 45.6669C8.19896 45.3149 8.06925 44.8238 8.18969 44.3884C8.57882 42.9523 8.45838 41.3495 8.86604 39.9134C5.63257 37.2544 4.1965 33.9097 4.1965 29.9536C4.1965 29.4811 4.1965 28.9437 4.24282 28.4897C3.83516 28.4156 3.44604 28.3415 3.05691 28.1562C2.13041 27.7207 1.41701 26.9703 0.925968 26.0994C0.138446 24.7003 0.166241 23.1068 0.925968 21.6985C1.68569 20.2902 3.06617 19.3545 4.69681 19.1877C6.35523 18.8449 7.06863 22.2822 5.03961 22.6899C4.73387 22.7362 4.33547 23.1253 4.1965 23.3755C4.04826 23.6441 4.04826 24.163 4.1965 24.4131C4.30768 24.6077 4.49298 24.7189 4.70607 24.8115C4.87284 24.8856 5.0674 24.9783 5.26197 24.9783C6.93892 21.2353 10.4874 18.1963 15.0087 16.5101C19.1131 19.7992 25.5337 19.2433 28.3317 15.3983C29.3509 15.6114 30.3885 15.9542 31.5281 16.4638C32.4917 15.5002 33.761 14.9166 34.9376 14.6108C37.1519 14.0364 38.903 15.176 38.0784 17.344H38.0692ZM34.5114 23.7831C33.1124 23.5793 31.8895 25.6546 32.7233 27.6373C33.4089 29.1661 34.6133 29.722 35.6788 29.268C36.735 28.814 37.0593 27.2482 36.383 25.7195C35.8363 24.4595 35.16 23.8758 34.5207 23.7831H34.5114Z" fill="currentColor"></path>
</symbol>
<symbol viewBox="0 0 24 24" fill="none" id="plus-circle-outline">
<path d="M12 9V15M15 12H9M21 12C21 16.9706 16.9706 21 12 21C7.02944 21 3 16.9706 3 12C3 7.02944 7.02944 3 12 3C16.9706 3 21 7.02944 21 12Z" stroke="currentColor" stroke-width="1.5" stroke-linecap="round" stroke-linejoin="round"></path>
</symbol>
<symbol viewBox="0 0 24 24" fill="none" id="plus-outline">
<path d="M12 4.5V19.5M19.5 12L4.5 12" stroke="currentColor" stroke-width="1.5" stroke-linecap="round" stroke-linejoin="round"></path>
</symbol>
<symbol fill="currentColor" role="img" viewBox="0 0 24 24" id="twitter"><title>Twitter</title><path d="M21.543 7.104c.015.211.015.423.015.636 0 6.507-4.954 14.01-14.01 14.01v-.003A13.94 13.94 0 0 1 0 19.539a9.88 9.88 0 0 0 7.287-2.041 4.93 4.93 0 0 1-4.6-3.42 4.916 4.916 0 0 0 2.223-.084A4.926 4.926 0 0 1 .96 9.167v-.062a4.887 4.887 0 0 0 2.235.616A4.928 4.928 0 0 1 1.67 3.148 13.98 13.98 0 0 0 11.82 8.292a4.929 4.929 0 0 1 8.39-4.49 9.868 9.868 0 0 0 3.128-1.196 4.941 4.941 0 0 1-2.165 2.724A9.828 9.828 0 0 0 24 4.555a10.019 10.019 0 0 1-2.457 2.549z"></path></symbol>
<symbol viewBox="0 0 24 24" fill="none" id="user-group-outline">
<path d="M17.9999 18.7191C18.2474 18.7396 18.4978 18.75 18.7506 18.75C19.7989 18.75 20.8054 18.5708 21.741 18.2413C21.7473 18.1617 21.7506 18.0812 21.7506 18C21.7506 16.3431 20.4074 15 18.7506 15C18.123 15 17.5403 15.1927 17.0587 15.5222M17.9999 18.7191C18 18.7294 18 18.7397 18 18.75C18 18.975 17.9876 19.1971 17.9635 19.4156C16.2067 20.4237 14.1707 21 12 21C9.82933 21 7.79327 20.4237 6.03651 19.4156C6.01238 19.1971 6 18.975 6 18.75C6 18.7397 6.00003 18.7295 6.00008 18.7192M17.9999 18.7191C17.994 17.5426 17.6494 16.4461 17.0587 15.5222M17.0587 15.5222C15.9928 13.8552 14.1255 12.75 12 12.75C9.87479 12.75 8.00765 13.8549 6.94169 15.5216M6.94169 15.5216C6.46023 15.1925 5.87796 15 5.25073 15C3.59388 15 2.25073 16.3431 2.25073 18C2.25073 18.0812 2.25396 18.1617 2.26029 18.2413C3.19593 18.5708 4.2024 18.75 5.25073 18.75C5.50307 18.75 5.75299 18.7396 6.00008 18.7192M6.94169 15.5216C6.35071 16.4457 6.00598 17.5424 6.00008 18.7192M15 6.75C15 8.40685 13.6569 9.75 12 9.75C10.3431 9.75 9 8.40685 9 6.75C9 5.09315 10.3431 3.75 12 3.75C13.6569 3.75 15 5.09315 15 6.75ZM21 9.75C21 10.9926 19.9926 12 18.75 12C17.5074 12 16.5 10.9926 16.5 9.75C16.5 8.50736 17.5074 7.5 18.75 7.5C19.9926 7.5 21 8.50736 21 9.75ZM7.5 9.75C7.5 10.9926 6.49264 12 5.25 12C4.00736 12 3 10.9926 3 9.75C3 8.50736 4.00736 7.5 5.25 7.5C6.49264 7.5 7.5 8.50736 7.5 9.75Z" stroke="currentColor" stroke-width="1.5" stroke-linecap="round" stroke-linejoin="round"></path>
</symbol>
<symbol viewBox="0 0 24 24" fill="none" id="x-circle-outline">
<path d="M9.75 9.75L14.25 14.25M14.25 9.75L9.75 14.25M21 12C21 16.9706 16.9706 21 12 21C7.02944 21 3 16.9706 3 12C3 7.02944 7.02944 3 12 3C16.9706 3 21 7.02944 21 12Z" stroke="currentColor" stroke-width="1.5" stroke-linecap="round" stroke-linejoin="round"></path>
</symbol>
</defs>
</svg>